<svg fill="#FFFAEF" xmlns="http://www.w3.org/2000/svg" width="536" height="336" viewBox="-0.599 -0.29 536 336" overflow="visible" enable-background="new -0.599 -0.29 536 336"><path fill-rule="evenodd" clip-rule="evenodd" d="M200.314 142.368c-19.347 18.653-31.491 44.509-60 54-6.632-7.981-.124-17.908 3-25 3.32-7.536 7.12-15.772 12-23 5.984-8.862 27.88-30.836 28-41 .081-6.822-10.113-18.531-16-18-4.772.431-8.867 9.107-13 14-13.751 16.281-24.467 32.112-35 48-6.706 11.538-12.253 19.019-24.562 19.019-4.708 0-7.988-4.451-9.75-13.229-3.158-15.72 7.611-26.648 20.08-39.303 7.399-7.509 15.05-15.273 20.676-24.879 18.762-32.04 23.029-58.673 13.836-86.355l-.179-.541-.438-.365c-4.482-3.738-9.907-5.715-15.688-5.715-5.749 0-11.558 1.941-16.802 5.612-23.281 16.304-28.324 52.026-33.664 89.845-2.221 15.73-4.5 31.833-8.109 47.397-10.887-17.435-22.664-27.554-35.451-29.168-5.282-.667-13.29 3.558-16.545 8.372-.097 14.894 30.783 32.245 40.934 55.196-6.94 16.474-15.497 31.375-23.841 45.888-19.948 34.69-38.79 67.458-25.192 109.913l.401 1.252 1.309.128c2.676.262 5.325.395 7.874.395h.006c17.209-.002 31.698-5.975 43.062-17.753 27.389-28.386 31.871-85.142 30.605-129.016 1.968.729 3.931 1.098 5.866 1.098 9.258 0 15.999-7.999 21.943-15.11l-.371 2.32c3.066 16.733 11.764 34.062 26 37 15.511 3.201 33.479-8.479 46-21 12.945-12.946 33.646-37.599 13-50.001zm-78.088-126.295c1.296 31.089-13.472 56.226-27.77 80.56-4.44 7.557-8.979 15.281-12.982 23.137 5.219-37.07 12.638-86.011 40.752-103.697zm-102.937 299.602c-1.35-32.547 11.238-60.708 23.425-87.968 4.914-10.991 9.953-22.266 14.028-33.757 1.008 68.065-11.284 107.993-37.453 121.725zm182.025-244.307c22.807 2.244 32.702-39.564 7-37-12.08 1.205-23.102 13.048-19 28 1.041 3.794 5.787 8.389 12 9zm214 0c22.807 2.244 32.702-39.564 7-37-12.08 1.205-23.102 13.048-19 28 1.041 3.794 5.787 8.389 12 9zm110 67c-23.306 26.058-43.454 60.506-92 58-8.122-5.041-6.863-23.019-3-32 30.263 32.316 81.054-29.892 79-59-1.065-15.098-12.981-29.216-27-30-26.354-1.507-39.58 16.554-51 31-10.695 13.529-20.162 28.77-24 44-16.329 16.671-27.973 38.027-53 46-6.641-8.804.102-18.42 3-25 7.684-17.442 16.418-27.131 27-42 2.768-3.889 12.925-15.631 13-22 .081-6.835-10.106-18.531-16-18-5.329.48-14.863 15.449-20 22-19.173 24.451-34.01 53.267-55 72-7.396 6.601-23.299 20.495-35 18-9.731-2.075-10.378-19.408-10-31 28.292-28.04 61.48-51.187 92-77-7.373-6.703-20.583-11.51-32-9-7.955 1.749-17.799 12.455-26 19-9.727 7.762-19.63 17.722-26.503 21.003.614-13.123 3.761-23.715 2.021-36.883-1.409-10.66-10.689-16.075-20.25-16.033-20.542.091-54.462 38.693-27.268 58.913 4.967-10.418 11.363-22.631 18-27 2.899 24.378 5.441 38.06-10 55-14.055 15.279-31.33 27.337-43 45 14.066 29.845 38.227-9.201 52-15 9.544 15.425 24.39 27.52 47 25 19.092-2.128 32.965-16.869 45-25 5.675 10.585 10.769 20.886 22 24 21.372 5.926 39.007-13.988 51-24 11.295 17.213 27.448 27.608 53 25 31.251-3.19 71.651-33.882 76-56 1.258-6.396.376-16.967-9-19zm-71.008-16.299c7.686-9.683 18.132-20.075 31.008-23.701-7.7 27.966-24.021 47.312-48 59 .098-13.701 9.21-25.494 16.992-35.299z"/></svg>